<?xml version="1.0" encoding="UTF-8" standalone="no"?><!DOCTYPE svg PUBLIC "-//W3C//DTD SVG 1.1//EN" "http://www.w3.org/Graphics/SVG/1.1/DTD/svg11.dtd"><svg width="100%" height="100%" viewBox="0 0 485 485" version="1.1" xmlns="http://www.w3.org/2000/svg" xmlns:xlink="http://www.w3.org/1999/xlink" xml:space="preserve" xmlns:serif="http://www.serif.com/" style="fill-rule:evenodd;clip-rule:evenodd;stroke-linejoin:round;stroke-miterlimit:1.41421;"><path d="M259.904,0.001c12.722,4.439 23.159,13.753 29.013,25.89l187,386.304c3.37,6.983 5.12,14.637 5.12,22.391c-0.028,6.417 -1.26,12.773 -3.631,18.736c-10.473,26.337 -40.313,39.198 -66.65,28.726l-150.852,-60.348l0,-421.699Zm-63.146,25.889l-186.932,386.304c-12.333,25.446 -1.703,56.071 23.743,68.405c12.975,6.289 28,6.815 41.384,1.449l150.818,-60.348l0,-421.7c-12.723,4.44 -23.16,13.753 -29.013,25.89Z" style="fill:url(#_Linear1);fill-rule:nonzero;"/><defs><linearGradient id="_Linear1" x1="0" y1="0" x2="1" y2="0" gradientUnits="userSpaceOnUse" gradientTransform="matrix(-390,-390,390,-390,472,472)"><stop offset="0" style="stop-color:#b066fe;stop-opacity:1"/><stop offset="1" style="stop-color:#63e2ff;stop-opacity:1"/></linearGradient></defs></svg>