<?xml version="1.0" standalone="no"?>
<!DOCTYPE svg PUBLIC "-//W3C//DTD SVG 20010904//EN"
 "http://www.w3.org/TR/2001/REC-SVG-20010904/DTD/svg10.dtd">
<svg version="1.0" xmlns="http://www.w3.org/2000/svg"
 width="700.000000pt" height="700.000000pt" viewBox="0 0 700.000000 700.000000"
 preserveAspectRatio="xMidYMid meet">
<metadata>
Created by potrace 1.11, written by Peter Selinger 2001-2013
</metadata>
<g transform="translate(0.000000,700.000000) scale(0.100000,-0.100000)"
fill="#000000" stroke="none">
<path d="M3174 6961 c-159 -78 -263 -190 -357 -384 -30 -61 -99 -202 -152
-312 -54 -110 -125 -258 -160 -330 -34 -71 -102 -211 -150 -310 -48 -99 -118
-243 -155 -320 -82 -169 -197 -409 -292 -605 -129 -266 -230 -474 -305 -630
-42 -85 -111 -229 -155 -320 -44 -91 -104 -214 -133 -275 -29 -60 -99 -204
-155 -320 -56 -115 -131 -268 -165 -340 -74 -153 -182 -376 -290 -600 -43 -88
-110 -227 -150 -310 -40 -82 -106 -220 -148 -305 -349 -723 -327 -666 -333
-845 -4 -132 12 -219 60 -328 69 -158 209 -298 366 -369 99 -45 155 -56 293
-57 144 -2 196 6 297 45 148 58 417 166 445 178 17 8 41 17 55 21 14 4 30 11
35 15 6 3 33 15 60 25 28 9 64 23 80 31 17 7 167 67 335 134 168 66 314 125
325 130 11 5 180 73 375 150 195 78 369 148 385 155 17 7 40 16 52 20 l22 6 0
3045 c0 1674 -1 3044 -3 3044 -1 0 -38 -18 -82 -39z"/>
<path d="M3750 3957 l0 -3043 253 -101 c138 -56 524 -210 857 -343 333 -133
717 -287 853 -341 320 -128 333 -131 510 -126 78 2 151 6 162 9 371 108 598
444 548 814 -15 112 -36 167 -158 419 -54 110 -123 254 -155 320 -32 66 -99
206 -150 310 -51 105 -121 249 -155 320 -76 157 -192 396 -310 640 -48 99
-113 234 -145 300 -32 66 -99 206 -150 310 -51 105 -123 253 -160 330 -37 77
-107 221 -155 320 -48 99 -113 234 -145 300 -57 119 -135 281 -305 630 -48 99
-118 243 -155 320 -146 303 -221 457 -295 610 -43 88 -110 228 -150 310 -209
433 -209 433 -284 524 -63 76 -187 163 -287 201 l-24 10 0 -3043z"/>
</g>
</svg>
